<svg width="50" height="50" viewBox="0 0 50 50" fill="none" xmlns="http://www.w3.org/2000/svg">
<g clip-path="url(#clip0_3572_3294)">
<path d="M9.82559 41.1811H31.3606V31.597H9.82559V41.1811Z" fill="white"/>
<path d="M21.9783 15.666C21.0442 16.4166 20.3234 16.9501 19.1799 17.4042C18.1846 17.8007 17.1156 17.9622 15.8939 18.1293C15.108 18.2398 14.2863 18.4022 13.5013 18.455C13.1786 18.4767 12.8559 18.4975 12.5342 18.523L-0.393126 19.4662V20.4236L12.586 19.1641L14.2692 19.0064C14.8928 18.9469 15.4476 18.879 15.9627 18.7949C17.2203 18.5929 18.3044 18.2851 19.2762 17.8517C20.2838 17.407 21.3037 16.6781 22.2519 15.8803C22.8963 15.3383 23.5171 14.6566 24.1917 13.9116V13.5689C23.3756 14.413 22.6982 15.0881 21.9784 15.6659M24.192 31.6998L-0.392959 31.0757V32.0303H24.192V31.6998ZM15.0299 30.0119L11.8504 29.9779C7.79354 29.9203 3.74137 29.8467 -0.392959 29.7693V30.7238C3.55254 30.6984 7.73204 30.6681 11.8532 30.6218L15.0345 30.5746C16.1063 30.5557 17.1564 30.536 18.2177 30.501C20.4037 30.4311 22.3624 30.2772 24.1917 30.0346V29.7022C22.3549 29.9005 20.3942 30.0043 18.2064 30.0185C17.1488 30.028 16.0892 30.0208 15.0297 30.0117M18.2425 28.5114C17.567 28.5378 16.8358 28.551 16.0065 28.551C15.6933 28.551 15.3791 28.5495 15.0669 28.5465L11.876 28.5078C9.69952 28.4917 7.53052 28.488 5.49536 28.4861L-0.392809 28.4914V29.445L5.50952 29.2911C7.53702 29.2411 9.71169 29.1892 11.8825 29.1505L15.0705 29.1079C15.9451 29.0947 17.099 29.0683 18.2679 28.9918C19.4132 28.9172 20.4557 28.803 21.4549 28.6434C22.354 28.4999 23.2729 28.3063 24.1919 28.0713V27.7332C23.2475 27.9504 22.3087 28.1251 21.3984 28.2468C20.4049 28.38 19.3727 28.4659 18.2425 28.5112M18.3052 26.9585C16.6843 27.0926 15.0257 27.0926 13.4208 27.0926C12.9217 27.0926 12.4226 27.0926 11.9236 27.0964C7.8224 27.1143 3.75423 27.1483 -0.393271 27.1842V28.1387C3.55706 28.0046 7.7469 27.8649 11.9377 27.7403C12.4349 27.7233 12.9321 27.711 13.4303 27.6978C15.0436 27.6573 16.7116 27.6157 18.3494 27.4382C19.4929 27.3154 20.5344 27.1351 21.5318 26.8887C22.4016 26.6743 23.2951 26.3892 24.1923 26.0465V25.6953C23.2658 26.0276 22.3431 26.2995 21.4439 26.4978C20.4561 26.7159 19.4296 26.866 18.3051 26.9585M18.4034 25.3833C16.6731 25.6146 14.8928 25.641 13.1701 25.6665C12.7757 25.6718 12.3804 25.6778 11.9861 25.6864L-0.393112 25.9092V26.8637L12.0077 26.3293C12.4002 26.3114 12.7946 26.2953 13.1889 26.2802C14.9229 26.2104 16.7166 26.1386 18.4704 25.8601C19.5799 25.6854 20.6479 25.4258 21.6451 25.0906C22.4706 24.814 23.3254 24.4561 24.1914 24.0331V23.6668C23.281 24.0907 22.3856 24.4438 21.5261 24.7082C20.5411 25.0122 19.4911 25.2398 18.4033 25.3833M18.5139 23.8178C17.5714 23.9906 16.5573 24.1011 15.3203 24.1643C14.8551 24.1889 14.357 24.2059 13.706 24.221L-0.392974 24.6024V25.5588L12.1089 24.9055L13.7288 24.8233C14.3609 24.7931 14.8779 24.7629 15.3562 24.7261C16.6101 24.6298 17.6412 24.4919 18.6017 24.2908C19.6924 24.0642 20.7509 23.7338 21.7472 23.3089C22.5501 22.9681 23.354 22.5526 24.1917 22.0475V21.6632C23.2973 22.1844 22.4464 22.6017 21.6011 22.9369C20.6189 23.3278 19.5802 23.6243 18.5141 23.8178M18.6539 22.2591C17.7152 22.4791 16.6972 22.6198 15.4509 22.7038C14.9707 22.7359 14.4537 22.7595 13.8244 22.7793L12.1875 22.8379C8.06265 22.9937 3.88031 23.173 -0.393521 23.359V24.3155C3.85298 24.0256 8.01831 23.7433 12.2196 23.4808L13.8528 23.3826C14.4934 23.3458 15.0151 23.309 15.4953 23.2646C16.7643 23.1475 17.803 22.9767 18.7635 22.7283C19.8409 22.4507 20.8882 22.0429 21.876 21.5179C22.6402 21.1129 23.4025 20.6257 24.1922 20.0384V19.6296C23.3383 20.2461 22.5193 20.7494 21.7005 21.1591C20.7297 21.6454 19.7052 22.0155 18.654 22.2591M18.8065 20.6693C17.8743 20.9431 16.8251 21.1282 15.5986 21.2349C15.1014 21.2783 14.5656 21.3113 13.9599 21.3359L12.3069 21.4085C8.20009 21.5993 4.11209 21.8126 -0.392907 22.0515V23.0079C3.91109 22.6747 8.12843 22.3508 12.3448 22.0506L13.992 21.9382C14.6289 21.8957 15.1563 21.8504 15.6525 21.7947C16.9092 21.654 17.9847 21.4369 18.9395 21.131C19.9971 20.7958 21.0284 20.3095 22.0039 19.6864C22.7237 19.2275 23.4445 18.6799 24.1917 18.0275V18.0105C23.3681 18.7139 22.5831 18.8706 21.801 19.3427C20.8425 19.9243 19.8349 20.37 18.8065 20.6693M18.4924 18.8458C17.6319 19.3273 16.9885 19.6049 15.76 19.7333C15.0175 19.8135 14.2543 19.8513 13.5155 19.8881C13.1589 19.906 12.8013 19.924 12.4438 19.9466C10.2116 20.0741 8.01893 20.2157 5.78193 20.3611L-0.393074 20.7775V21.7368L5.84409 21.1646C7.85926 20.9833 10.2009 20.7747 12.4869 20.5877L14.1493 20.4593C14.7984 20.4093 15.3305 20.3564 15.823 20.2922C17.0872 20.1289 18.1675 19.873 19.1241 19.5114C20.1544 19.1262 21.1261 18.5276 22.0988 17.8233C22.9762 17.1888 24.1905 15.9377 24.1915 15.9217V15.5828C23.398 16.357 22.9414 16.7922 22.0725 17.3653C21.0337 18.0498 19.2638 18.4142 18.492 18.8457M22.0655 13.8629C21.1616 14.6928 20.2181 15.3452 19.2606 15.8021C18.3238 16.2544 17.2765 16.5716 16.0566 16.7718C15.5538 16.8558 15.0066 16.9238 14.3848 16.9804L-0.393541 18.1946V19.1539L12.7431 17.7594L14.4423 17.5809C15.0829 17.5064 15.6414 17.4232 16.149 17.3269C17.4123 17.0881 18.4963 16.7321 19.4615 16.2374C20.4483 15.7379 21.4343 14.9071 22.3513 14.0271C22.9664 13.437 23.5589 12.675 24.192 11.8763V11.5563C23.4608 12.4664 22.7626 13.2236 22.0655 13.8628M19.473 14.0984C18.5455 14.6318 17.4748 15.0227 16.2898 15.2587C15.7841 15.3616 15.2322 15.4447 14.6038 15.5127C14.234 15.5533 13.8622 15.5854 13.4896 15.6175C13.2886 15.6345 13.0877 15.6524 12.8867 15.6704C8.34671 16.0782 3.83038 16.5116 -0.393457 16.9214V17.8835C3.86338 17.3699 8.41188 16.8251 12.9499 16.3114C13.1518 16.2879 13.3537 16.2652 13.5556 16.2435C13.9273 16.2028 14.3 16.1613 14.6726 16.1122C15.3189 16.0263 15.884 15.9272 16.4001 15.8101C17.6313 15.5344 18.7428 15.1001 19.7041 14.5175C20.6589 13.9444 21.5023 13.141 22.41 12.159C22.9751 11.5481 23.6034 10.6851 24.1921 9.87511V9.522C23.4987 10.4624 22.8411 11.2526 22.1911 11.9268C21.3052 12.8454 20.391 13.5753 19.473 14.0984M-0.393707 16.5839C-0.393707 16.5839 14.4205 14.6653 14.8385 14.5974C15.48 14.4926 16.0489 14.3699 16.5801 14.2235C17.7783 13.895 18.8813 13.3936 19.8576 12.7327C20.7945 12.1048 21.6653 11.1909 22.5286 10.1882C23.0768 9.5499 23.6532 8.7181 24.191 7.91564V7.52759C23.5532 8.47269 22.9249 9.28756 22.2787 10.0059C21.422 10.9605 20.5238 11.7404 19.6077 12.3256C18.6623 12.9356 17.599 13.3897 16.4452 13.6777C15.9281 13.808 15.3753 13.9137 14.7527 14.0006C14.3432 14.0581 13.9205 14.1026 13.512 14.145C13.3488 14.163 -0.393657 15.6217 -0.393657 15.6217L-0.393707 16.5839Z" fill="#BDBCBC"/>
<path d="M34.4299 31.2554C34.4299 31.2554 38.4821 31.4046 39.7133 31.431C40.9444 31.4575 49.5931 31.7993 49.5931 31.7993V32.0362L34.4298 32.0268L34.4299 31.2554ZM34.4213 29.2133C34.4213 29.2133 36.9988 29.6485 39.7131 30.0894C41.7481 30.4208 44.5059 30.6295 44.8003 30.6418C45.0946 30.655 49.5931 30.9581 49.5931 30.9581V31.1941C49.5931 31.1941 46.7146 31.0487 44.8003 30.9449C42.8068 30.8363 40.8254 30.7183 39.6999 30.6031C37.1789 30.3444 34.4213 30.0026 34.4213 30.0026V29.2133ZM34.4299 27.2406C34.4299 27.2406 37.5716 28.1961 39.7133 28.7484C41.8549 29.3008 43.8229 29.5245 44.8136 29.5897C45.8042 29.6558 49.5799 29.9579 49.5799 29.9579V30.1817C49.5799 30.1817 47.4383 30.0382 44.8004 29.8531C42.6673 29.7039 40.9539 29.5462 39.7001 29.2743C38.3104 28.9732 34.4214 28.0649 34.4214 28.0649L34.4299 27.2406L34.4299 27.2406ZM34.4299 25.2418C34.4299 25.2418 37.5273 26.5429 39.7133 27.3936C41.8644 28.231 43.5069 28.3018 44.8136 28.4463C45.3891 28.5096 49.5799 28.9325 49.5799 28.9325V29.1686C49.5799 29.1686 47.0759 28.9722 44.8004 28.7749C42.5249 28.5775 41.5426 28.4945 39.7001 27.894C37.8349 27.2869 34.4214 26.119 34.4214 26.119L34.4299 25.2419L34.4299 25.2418ZM34.4299 23.2693C34.4299 23.2693 38.3669 25.3701 39.7001 26.0262C41.1861 26.7579 42.4711 27.1092 44.8004 27.3801C47.0874 27.6483 49.5933 27.907 49.5933 27.907V28.144C49.5933 28.144 47.2761 27.9004 44.8004 27.67C42.3464 27.4425 41.4719 27.3367 39.7001 26.5653C38.1151 25.8761 34.4214 24.1899 34.4214 24.1899L34.4299 23.2693H34.4299ZM34.4211 21.3319C34.4211 21.3319 38.8694 24.2381 39.7129 24.6987C40.5573 25.1585 41.5479 25.9082 44.8001 26.3161C48.0531 26.723 49.5796 26.9071 49.5796 26.9071V27.1573C49.5796 27.1573 46.8889 26.8684 44.7867 26.6446C42.6847 26.4209 41.2526 26.1188 39.6864 25.2766C38.1203 24.4353 34.4294 22.3224 34.4294 22.3224L34.4209 21.332L34.4211 21.3319ZM34.4211 19.3945C34.4211 19.3945 38.8562 22.8444 39.6866 23.4486C40.5168 24.0538 41.6141 24.7591 44.8001 25.2115C47.9597 25.659 49.5796 25.8818 49.5796 25.8818V26.1452C49.5796 26.1452 46.7152 25.7364 44.8001 25.5004C42.8857 25.2634 41.4177 25.1633 39.6997 24.0407C38.0269 22.9483 34.4296 20.4642 34.4296 20.4642L34.421 19.3945L34.4211 19.3945ZM34.4299 17.3693C34.4299 17.3693 38.3179 20.9108 39.7001 22.1213C40.9719 23.2345 42.0031 23.581 44.8004 24.0673C47.5988 24.5535 49.5933 24.8556 49.5933 24.8556V25.1058C49.5933 25.1058 47.0629 24.698 44.7873 24.343C42.5116 23.988 41.0616 23.8482 39.7001 22.7653C38.1292 21.5152 34.4299 18.527 34.4299 18.527V17.3693ZM34.4299 15.4757C34.4299 15.4757 38.5179 19.6782 39.7001 20.8847C40.954 22.1641 42.5606 22.638 44.7873 23.028C46.9129 23.4 49.5933 23.8305 49.5933 23.8305V24.0666C49.5933 24.0666 47.0761 23.6625 44.7873 23.2782C42.5428 22.9005 40.9719 22.6909 39.6869 21.5287C38.5359 20.4883 34.4299 16.7117 34.4299 16.7117V15.4757ZM34.4213 13.4331C34.4213 13.4331 38.8489 18.5627 39.6999 19.4775C41.0255 20.9023 41.6679 21.3933 44.8003 21.9891C46.0532 22.2279 49.5931 22.8445 49.5931 22.8445V23.0673C49.5931 23.0673 46.6618 22.5414 44.8003 22.2128C42.9398 21.8843 41.3651 21.7615 39.6868 20.148C38.4084 18.9196 34.4298 14.7568 34.4298 14.7568L34.4212 13.4331L34.4213 13.4331ZM34.4299 11.4693C34.4299 11.4693 38.8029 17.1238 39.6869 18.255C40.57 19.3851 41.7879 20.3188 44.8004 20.8976C46.5373 21.2318 49.5933 21.7917 49.5933 21.7917V22.0022C49.5933 22.0022 46.9158 21.5028 44.8004 21.1213C42.6853 20.7399 40.9389 20.3707 39.6869 18.9649C38.5887 17.7309 34.4214 12.8807 34.4214 12.8807L34.4299 11.4692L34.4299 11.4693ZM34.4299 9.47046C34.4299 9.47046 39.0708 16.1239 39.6869 16.9397C40.303 17.7554 41.1323 19.0697 44.8004 19.8458C45.7477 20.046 49.6064 20.806 49.6064 20.806V21.0166C49.6064 21.0166 46.6741 20.451 44.8004 20.0564C42.9258 19.6617 40.9568 19.302 39.7001 17.7158C38.5585 16.275 34.4214 10.9613 34.4214 10.9613L34.4299 9.47046H34.4299ZM34.4299 7.48032C34.4299 7.48032 38.9208 14.4793 39.7426 15.7663C40.5634 17.0522 41.5021 18.07 44.8249 18.7612C48.1478 19.4524 49.5941 19.779 49.5941 19.779V20.0282C49.5941 20.0282 47.4826 19.5864 44.7654 18.9915C42.0493 18.3967 40.9388 18.1956 39.6999 16.5055C38.6687 15.0987 34.4298 9.1194 34.4298 9.1194L34.4299 7.48032Z" fill="#BDBCBC"/>
<path d="M31.3648 17.6105H9.82651V32.0297H31.3648V17.6105Z" fill="#254AA5"/>
<path d="M9.82559 42.1268H31.3673V40.8965H9.82559V42.1268Z" fill="#254AA5"/>
<path d="M18.3933 28.6468H19.1424L18.5386 29.1L18.7716 29.8185L18.1716 29.3757L17.5696 29.8185L17.8074 29.1L17.1979 28.6468H17.9451L18.1716 27.9453L18.3933 28.6468ZM16.6524 26.9049H17.4034L16.7987 27.359L17.0327 28.0785L16.4317 27.6347L15.8307 28.0785L16.0666 27.359L15.4571 26.9049H16.2053L16.4317 26.2052L16.6524 26.9049ZM16.0156 24.453H16.7657L16.1618 24.9063L16.3958 25.6257L15.7948 25.1829L15.1929 25.6257L15.4297 24.9063L14.8212 24.453H15.5684L15.7948 23.7525L16.0156 24.453ZM16.6524 22.0748H17.4034L16.7987 22.528L17.0327 23.2474L16.4317 22.8037L15.8307 23.2474L16.0666 22.528L15.4571 22.0748H16.2053L16.4317 21.3742L16.6524 22.0748ZM18.3683 20.309H19.1174L18.5136 20.7631L18.7485 21.4816L18.1465 21.0379L17.5446 21.4816L17.7824 20.7631L17.1729 20.309H17.9201L18.1465 19.6084L18.3683 20.309ZM25.6208 24.447H26.3718L25.767 24.9002L26.0019 25.6197L25.4 25.1759L24.799 25.6197L25.0358 24.9002L24.4254 24.447H25.1726L25.4 23.7465L25.6208 24.447ZM24.9596 26.8989H25.7087L25.1049 27.353L25.3398 28.0724L24.7379 27.6287L24.1378 28.0724L24.3746 27.353L23.7642 26.8989H24.5114L24.7379 26.1974L24.9596 26.8989ZM24.9596 22.0688H25.7087L25.1049 22.521L25.3398 23.2405L24.7379 22.7977L24.1378 23.2405L24.3746 22.521L23.7642 22.0688H24.5114L24.7379 21.3673L24.9596 22.0688ZM23.1949 20.303H23.9459L23.3412 20.7562L23.5761 21.4747L22.9742 21.0319L22.3732 21.4747L22.61 20.7562L21.9995 20.303H22.7477L22.9742 19.6024L23.1949 20.303ZM23.1949 28.6408H23.9459L23.3412 29.094L23.5761 29.8125L22.9742 29.3688L22.3732 29.8125L22.61 29.094L21.9995 28.6408H22.7477L22.9742 27.9393L23.1949 28.6408ZM20.8181 29.2776H21.5691L20.9643 29.7317L21.1992 30.4493L20.5973 30.0074L19.9963 30.4493L20.2331 29.7317L19.6227 29.2776H20.3709L20.5973 28.577L20.8181 29.2776ZM20.7917 19.6616H21.5408L20.9369 20.1327L21.1719 20.8796L20.5699 20.4198L19.968 20.8796L20.2057 20.1327L19.5963 19.6616H20.3435L20.5699 18.9327L20.7917 19.6616Z" fill="#FFF200"/>
<path d="M23.5233 35.6403H23.2789C23.2345 35.6403 23.2138 35.6196 23.2138 35.5761L23.2175 34.6207C23.2175 34.4196 23.1704 34.2874 22.9732 34.2874C22.8373 34.2874 22.5996 34.3959 22.5071 34.4403V35.5761C22.5071 35.6168 22.4901 35.6404 22.443 35.6404H22.2014C22.1543 35.6404 22.1373 35.6196 22.1373 35.5761V34.0419C22.1373 33.9985 22.1543 33.9748 22.2014 33.9748H22.443C22.4901 33.9748 22.5071 33.9984 22.5071 34.0419V34.1448C22.5109 34.1448 22.5147 34.1478 22.5175 34.1478C22.643 34.06 22.8808 33.9439 23.0883 33.9439C23.5469 33.9439 23.5884 34.247 23.5884 34.5897V35.5764C23.5884 35.617 23.5742 35.6406 23.5232 35.6406M21.4819 34.882H21.0677C20.8979 34.882 20.7885 34.9434 20.7885 35.1681C20.7885 35.3173 20.8394 35.3654 20.9998 35.3654C21.146 35.3654 21.3526 35.2795 21.4819 35.2049L21.4819 34.882ZM21.5027 35.4466C21.3328 35.576 21.1045 35.6676 20.8771 35.6676C20.5167 35.6676 20.412 35.4702 20.412 35.1851C20.4082 34.7867 20.6224 34.6167 21.0507 34.6167H21.4857V34.5289C21.4857 34.325 21.4102 34.2532 21.1319 34.2532C21.0196 34.2532 20.8054 34.2702 20.6696 34.2834C20.6016 34.2939 20.5847 34.2902 20.5752 34.2429L20.5441 34.1173C20.5373 34.0729 20.5479 34.0455 20.6224 34.0153C20.7687 33.9643 21.0366 33.9408 21.197 33.9408C21.7848 33.9408 21.8555 34.1815 21.8555 34.563V35.2192C21.8555 35.358 21.8725 35.3617 21.9782 35.3749C22.0291 35.3787 22.0423 35.3891 22.0423 35.4259V35.5694C22.0423 35.6063 22.0188 35.6299 21.9612 35.6402C21.9065 35.6506 21.8527 35.6572 21.8017 35.6572C21.6414 35.6572 21.5432 35.61 21.5093 35.4504L21.5025 35.4467L21.5027 35.4466ZM19.2163 34.6544H19.889C19.889 34.4467 19.8343 34.2465 19.5531 34.2465C19.3012 34.2465 19.2333 34.3995 19.2163 34.6544ZM19.2126 34.9093C19.223 35.253 19.3456 35.3483 19.6239 35.3483C19.7466 35.3483 19.9362 35.3238 20.0654 35.3106C20.1268 35.3038 20.1475 35.3038 20.1579 35.3682L20.1778 35.4805C20.1882 35.5315 20.1815 35.5589 20.1202 35.5863C19.9872 35.6373 19.74 35.6713 19.573 35.6713C18.9239 35.6713 18.8287 35.2568 18.8287 34.814C18.8287 34.4844 18.89 33.9406 19.5532 33.9406C20.1608 33.9406 20.2693 34.3353 20.2797 34.7016C20.2835 34.8244 20.2495 34.9093 20.1137 34.9093H19.2127L19.2126 34.9093ZM17.9801 34.2872C17.8405 34.2872 17.6263 34.3854 17.5244 34.4402V35.2899C17.6772 35.3343 17.7999 35.3475 17.9159 35.3475C18.1603 35.3475 18.2452 35.222 18.2452 34.7943C18.2452 34.3618 18.1603 34.2872 17.9801 34.2872M17.9528 35.6714C17.8405 35.6714 17.6848 35.6506 17.5282 35.5959L17.5245 35.5996V36.1982C17.5245 36.235 17.515 36.2662 17.4603 36.2662H17.2188C17.165 36.2662 17.1546 36.2426 17.1546 36.1982V34.0426C17.1546 33.9983 17.1716 33.9746 17.2188 33.9746H17.4603C17.5085 33.9746 17.5217 34.0011 17.5217 34.0426V34.1446L17.5321 34.1514C17.6538 34.0664 17.8717 33.9475 18.0689 33.9475C18.5133 33.9475 18.6293 34.2836 18.6293 34.7972C18.6293 35.3514 18.4897 35.6715 17.9529 35.6715M16.2174 34.2666C15.9287 34.2666 15.8636 34.4507 15.8636 34.8039C15.8636 35.1645 15.9286 35.3411 16.2136 35.3411C16.523 35.3411 16.5844 35.1674 16.5844 34.8039C16.5844 34.4432 16.5268 34.2666 16.2174 34.2666ZM16.2136 35.6678C15.5315 35.6678 15.4871 35.1674 15.4871 34.7803C15.4871 34.4602 15.5578 33.94 16.2136 33.94C16.8731 33.94 16.9646 34.379 16.9646 34.7803C16.9646 35.1674 16.9174 35.6678 16.2136 35.6678ZM14.7873 35.5757C14.7873 35.6164 14.7703 35.6399 14.7231 35.6399H14.4778C14.4306 35.6399 14.4137 35.6201 14.4137 35.5757V34.0424C14.4137 33.998 14.4306 33.9744 14.4778 33.9744H14.7193C14.7703 33.9744 14.7873 34.0018 14.7873 34.0424V34.1916L14.7941 34.1984C14.896 34.104 15.1375 33.9878 15.2969 33.9576C15.3413 33.9472 15.3714 33.9576 15.379 34.0152L15.4026 34.2427C15.4056 34.2909 15.4094 34.3107 15.3375 34.3249C15.1479 34.3617 14.9063 34.4297 14.7875 34.4806V35.5759L14.7873 35.5757ZM14.0608 35.6403H13.8193C13.7683 35.6403 13.7551 35.6167 13.7551 35.5761V35.4704L13.7483 35.4666C13.6153 35.5591 13.3842 35.6705 13.1775 35.6705C12.719 35.6705 12.6747 35.3986 12.6747 35.0417V34.0418C12.6747 34.0013 12.6916 33.9748 12.7388 33.9748H12.9869C13.0313 33.9748 13.0483 33.9983 13.0483 34.0418V34.9973C13.0483 35.2022 13.0888 35.3306 13.2964 35.3306C13.4427 35.3306 13.6663 35.222 13.755 35.1777V34.0418C13.755 34.0013 13.7682 33.9748 13.8191 33.9748H14.0606C14.1078 33.9748 14.1248 33.9983 14.1248 34.0418V35.5761C14.1248 35.6195 14.1078 35.6403 14.0606 35.6403M11.0851 33.4507C11.0851 33.4063 11.1059 33.3827 11.1531 33.3827H12.4032C12.4438 33.3827 12.4683 33.4063 12.4683 33.4469V33.6584C12.4683 33.699 12.4513 33.7198 12.4004 33.7198H11.4729V34.3042H12.2947C12.339 34.3042 12.3626 34.325 12.3626 34.3656V34.5761C12.3626 34.6167 12.3456 34.6374 12.2947 34.6374H11.4729V35.3069H12.4239C12.4645 35.3069 12.4853 35.3276 12.4853 35.372V35.5788C12.4853 35.6232 12.4683 35.6401 12.4202 35.6401H11.1531C11.1059 35.6401 11.0852 35.6194 11.0852 35.5788V33.4507L11.0851 33.4507Z" fill="#5A5758"/>
<path d="M26.9633 39.228H26.7189C26.6745 39.228 26.6538 39.2072 26.6538 39.1638L26.6575 38.2083C26.6575 38.0072 26.6104 37.875 26.4132 37.875C26.2773 37.875 26.0396 37.9836 25.9471 38.028V39.1638C25.9471 39.2044 25.9301 39.228 25.883 39.228H25.6414C25.5943 39.228 25.5773 39.2072 25.5773 39.1638V37.6295C25.5773 37.5861 25.5943 37.5625 25.6414 37.5625H25.883C25.9301 37.5625 25.9471 37.586 25.9471 37.6295V37.7325C25.9509 37.7325 25.9539 37.7355 25.9575 37.7355C26.083 37.6477 26.3217 37.5315 26.5283 37.5315C26.9869 37.5315 27.0284 37.8346 27.0284 38.1774V39.164C27.0284 39.2046 27.0143 39.2282 26.9632 39.2282M24.6466 37.8544C24.3579 37.8544 24.2937 38.0385 24.2937 38.3916C24.2937 38.7523 24.3579 38.9288 24.6428 38.9288C24.9523 38.9288 25.0136 38.7551 25.0136 38.3916C25.0136 38.0309 24.956 37.8544 24.6466 37.8544M24.6428 39.2555C23.9607 39.2555 23.9164 38.7551 23.9164 38.368C23.9164 38.0479 23.9871 37.5277 24.6428 37.5277C25.3023 37.5277 25.3938 37.9667 25.3938 38.368C25.3938 38.7551 25.3466 39.2555 24.6428 39.2555ZM23.665 39.1634C23.665 39.2003 23.6518 39.2276 23.6037 39.2276H23.3621C23.315 39.2276 23.2942 39.2078 23.2942 39.1634V37.6264C23.2942 37.5791 23.315 37.5622 23.3621 37.5622H23.6037C23.6518 37.5622 23.665 37.5895 23.665 37.6264V39.1634ZM23.4848 37.3176C23.3084 37.3176 23.2848 37.2184 23.2848 37.1202C23.2848 37.0117 23.3216 36.9258 23.4848 36.9258C23.6518 36.9258 23.6858 37.0041 23.6858 37.1202C23.6858 37.225 23.6547 37.3176 23.4848 37.3176ZM22.3811 39.2553C22.2113 39.2553 21.9839 39.2318 21.8546 39.1808C21.7867 39.1535 21.7725 39.1223 21.7829 39.0684L21.8065 38.9561C21.8169 38.9013 21.8404 38.8985 21.8951 38.9051C22.0442 38.9287 22.2622 38.9457 22.3773 38.9457C22.5952 38.9457 22.6839 38.8881 22.6839 38.7522C22.6839 38.5954 22.6254 38.5615 22.4112 38.5312C22.0782 38.4831 21.7866 38.4123 21.7866 38.0412C21.7866 37.7051 22.0442 37.5286 22.4253 37.5286C22.564 37.5286 22.799 37.5484 22.9414 37.6031C22.999 37.6267 23.0235 37.6541 23.0131 37.7051L22.9858 37.8269C22.9755 37.8751 22.9556 37.8816 22.8943 37.8751C22.748 37.8581 22.5575 37.8373 22.432 37.8373C22.215 37.8373 22.164 37.8986 22.164 38.028C22.164 38.1602 22.2452 38.1772 22.4527 38.2112C22.7754 38.2593 23.0669 38.3235 23.0669 38.7286C23.0669 39.1261 22.7311 39.2554 22.381 39.2554M20.9579 39.2554C20.7881 39.2554 20.5607 39.2318 20.4315 39.1808C20.3635 39.1535 20.3494 39.1223 20.3598 39.0684L20.3833 38.9561C20.3937 38.9013 20.4173 38.8985 20.472 38.9051C20.6211 38.9287 20.839 38.9457 20.9541 38.9457C21.172 38.9457 21.2607 38.8881 21.2607 38.7522C21.2607 38.5955 21.2022 38.5615 20.9881 38.5313C20.655 38.4831 20.3635 38.4123 20.3635 38.0412C20.3635 37.7051 20.6211 37.5286 21.0022 37.5286C21.1409 37.5286 21.3758 37.5484 21.5183 37.6031C21.5759 37.6267 21.6004 37.6541 21.59 37.7051L21.5627 37.8269C21.5522 37.8751 21.5325 37.8816 21.4711 37.8751C21.3249 37.8581 21.1343 37.8373 21.0088 37.8373C20.7918 37.8373 20.7409 37.8986 20.7409 38.028C20.7409 38.1602 20.822 38.1772 21.0296 38.2112C21.3523 38.2593 21.6438 38.3235 21.6438 38.7286C21.6438 39.1261 21.3079 39.2554 20.9579 39.2554M20.1156 39.1635C20.1156 39.2004 20.1024 39.2277 20.0542 39.2277H19.8127C19.7655 39.2277 19.7448 39.2078 19.7448 39.1635V37.6264C19.7448 37.5792 19.7655 37.5622 19.8127 37.5622H20.0542C20.1024 37.5622 20.1156 37.5895 20.1156 37.6264V39.1635ZM19.9354 37.3176C19.7589 37.3176 19.7354 37.2185 19.7354 37.1203C19.7354 37.0117 19.7722 36.9258 19.9354 36.9258C20.1024 36.9258 20.1363 37.0042 20.1363 37.1203C20.1363 37.2251 20.1052 37.3176 19.9354 37.3176ZM19.4063 39.228H19.1619C19.1138 39.228 19.0968 39.2073 19.0968 39.1638V38.198C19.0968 37.9459 19.0364 37.875 18.8656 37.875C18.7402 37.875 18.5364 37.9732 18.4316 38.028C18.4316 38.062 18.4347 38.1234 18.4347 38.2008V39.1638C18.4347 39.2045 18.4214 39.228 18.3705 39.228H18.1224C18.0781 39.228 18.0648 39.2073 18.0648 39.1638V38.181C18.0648 37.9732 18.0101 37.8751 17.8402 37.8751C17.7214 37.8751 17.5308 37.96 17.4015 38.028V39.1638C17.4015 39.2045 17.3845 39.228 17.3374 39.228H17.093C17.0486 39.228 17.0317 39.2073 17.0317 39.1638V37.6296C17.0317 37.5862 17.0486 37.5625 17.093 37.5625H17.3336C17.3846 37.5625 17.4015 37.5889 17.4015 37.6296V37.7287L17.4053 37.7325C17.5374 37.64 17.7242 37.538 17.9119 37.5314C18.1082 37.5314 18.2714 37.572 18.3771 37.7693C18.5469 37.6437 18.7573 37.5314 18.9752 37.5314C19.4234 37.5314 19.4677 37.8241 19.4677 38.164V39.1638C19.4677 39.2045 19.4535 39.228 19.4063 39.228M16.7435 39.228H16.4992C16.4511 39.228 16.434 39.2073 16.434 39.1638V38.198C16.434 37.9459 16.3736 37.8751 16.2029 37.8751C16.0774 37.8751 15.8736 37.9732 15.7689 38.028C15.7689 38.062 15.7719 38.1234 15.7719 38.2008V39.1638C15.7719 39.2045 15.7587 39.228 15.7078 39.228H15.4596C15.4153 39.228 15.402 39.2073 15.402 39.1638V38.181C15.402 37.9732 15.3473 37.8751 15.1775 37.8751C15.0586 37.8751 14.868 37.96 14.7388 38.028V39.1638C14.7388 39.2045 14.7218 39.228 14.6746 39.228H14.4303C14.3859 39.228 14.3689 39.2073 14.3689 39.1638V37.6296C14.3689 37.5862 14.3859 37.5625 14.4303 37.5625H14.6709C14.7218 37.5625 14.7388 37.5889 14.7388 37.6296V37.7287L14.7426 37.7325C14.8746 37.64 15.0614 37.538 15.2492 37.5314C15.4454 37.5314 15.6086 37.572 15.7143 37.7693C15.8841 37.6437 16.0945 37.5314 16.3125 37.5314C16.7606 37.5314 16.805 37.8241 16.805 38.164V39.1638C16.805 39.2045 16.7908 39.228 16.7436 39.228M13.4281 37.8544C13.1394 37.8544 13.0743 38.0385 13.0743 38.3916C13.0743 38.7523 13.1394 38.9288 13.4243 38.9288C13.7338 38.9288 13.7951 38.7551 13.7951 38.3916C13.7951 38.0309 13.7375 37.8544 13.4281 37.8544ZM13.4243 39.2555C12.7422 39.2555 12.6979 38.7551 12.6979 38.368C12.6979 38.0479 12.7686 37.5277 13.4243 37.5277C14.0838 37.5277 14.1753 37.9667 14.1753 38.368C14.1753 38.7551 14.1282 39.2555 13.4243 39.2555ZM11.971 36.9466C12.1371 36.9466 12.4126 36.9702 12.5928 37.0448C12.6475 37.0694 12.6673 37.0968 12.6569 37.1506L12.6267 37.2903C12.6163 37.331 12.5994 37.348 12.538 37.3413C12.372 37.3205 12.1682 37.297 11.9918 37.297C11.5295 37.297 11.4616 37.6709 11.4616 38.1127C11.4616 38.5584 11.5465 38.9086 11.9918 38.9086C12.188 38.9086 12.355 38.8879 12.538 38.8642C12.6032 38.8574 12.6163 38.8747 12.6305 38.919L12.6569 39.0483C12.671 39.1022 12.6539 39.1333 12.5993 39.1569C12.4333 39.2277 12.137 39.2589 11.971 39.2589C11.2134 39.2589 11.0539 38.6981 11.0539 38.1193C11.0539 37.5386 11.1964 36.9467 11.971 36.9467" fill="#5A5758"/>
</g>
<defs>
<clipPath id="clip0_3572_3294">
<rect width="50" height="50" fill="white"/>
</clipPath>
</defs>
</svg>
