<svg width="50" height="50" viewBox="0 0 50 50" fill="none" xmlns="http://www.w3.org/2000/svg">
<g clip-path="url(#clip0_4557_157)">
<path d="M31.25 7.61169H32.1875C32.533 7.61169 32.8125 7.33215 32.8125 6.98669C32.8125 6.64123 32.533 6.36169 32.1875 6.36169H31.25C30.9045 6.36169 30.625 6.64123 30.625 6.98669C30.625 7.33215 30.9045 7.61169 31.25 7.61169Z" fill="#55B685"/>
<path d="M28.7195 37.3743C29.0649 37.3743 29.3445 37.0947 29.3445 36.7493C29.3445 36.4038 29.0649 36.1243 28.7195 36.1243H26.8451C26.4996 36.1243 26.2201 36.4038 26.2201 36.7493C26.2201 37.0947 26.4996 37.3743 26.8451 37.3743H28.7195Z" fill="#55B685"/>
<path d="M24.3451 37.3743C24.6906 37.3743 24.9701 37.0947 24.9701 36.7493C24.9701 36.4038 24.6906 36.1243 24.3451 36.1243H22.4707C22.1252 36.1243 21.8457 36.4038 21.8457 36.7493C21.8457 37.0947 22.1252 37.3743 22.4707 37.3743H24.3451Z" fill="#55B685"/>
<path d="M33.0939 37.3743C33.4393 37.3743 33.7189 37.0947 33.7189 36.7493C33.7189 36.4038 33.4393 36.1243 33.0939 36.1243H31.2195C30.874 36.1243 30.5945 36.4038 30.5945 36.7493C30.5945 37.0947 30.874 37.3743 31.2195 37.3743H33.0939Z" fill="#55B685"/>
<path d="M39.3433 36.7493C39.3433 37.0947 39.6228 37.3743 39.9683 37.3743H41.8427C42.1881 37.3743 42.4677 37.0947 42.4677 36.7493C42.4677 36.4038 42.1881 36.1243 41.8427 36.1243H39.9683C39.6228 36.1243 39.3433 36.4038 39.3433 36.7493Z" fill="#55B685"/>
<path d="M44.3323 28.8513C43.8269 28.6481 43.2922 28.5455 42.7441 28.5455H42.2583C41.9128 28.5455 41.6333 28.8251 41.6333 29.1705C41.6333 29.516 41.9128 29.7955 42.2583 29.7955H42.7441C43.1323 29.7955 43.5101 29.8682 43.8672 30.011C43.9435 30.0421 44.0222 30.0562 44.0997 30.0562C44.3475 30.0562 44.5819 29.9078 44.6796 29.6637C44.8083 29.3433 44.6527 28.9795 44.3323 28.8513Z" fill="#55B685"/>
<path d="M34.9689 36.7493C34.9689 37.0947 35.2484 37.3743 35.5939 37.3743H37.4683C37.8137 37.3743 38.0933 37.0947 38.0933 36.7493C38.0933 36.4038 37.8137 36.1243 37.4683 36.1243H35.5939C35.2484 36.1243 34.9689 36.4038 34.9689 36.7493Z" fill="#55B685"/>
<path d="M39.7589 28.5455H37.8839C37.5385 28.5455 37.2589 28.8251 37.2589 29.1705C37.2589 29.516 37.5385 29.7955 37.8839 29.7955H39.7589C40.1044 29.7955 40.3839 29.516 40.3839 29.1705C40.3839 28.8251 40.1044 28.5455 39.7589 28.5455Z" fill="#55B685"/>
<path d="M44.0252 35.8398C43.7127 35.9869 43.5791 36.3593 43.7262 36.6711C43.8324 36.8976 44.057 37.03 44.292 37.03C44.3811 37.03 44.4714 37.0111 44.5575 36.9702C45.2215 36.6577 45.7971 36.1762 46.2219 35.5774C46.4215 35.296 46.3556 34.9054 46.0742 34.7058C45.7922 34.505 45.4022 34.5728 45.2026 34.8535C44.9017 35.2777 44.4946 35.6183 44.0252 35.8398Z" fill="#55B685"/>
<path d="M6.81149 11.814C6.69491 11.4886 6.33786 11.319 6.01193 11.438C5.68722 11.5546 5.51877 11.9128 5.63595 12.2376C5.88437 12.9272 6.31039 13.5455 6.86825 14.0253C6.98666 14.1272 7.13131 14.1766 7.27597 14.1766C7.45175 14.1766 7.62631 14.1028 7.7496 13.9594C7.97482 13.6975 7.94491 13.3026 7.68368 13.078C7.28879 12.738 6.98727 12.301 6.81149 11.814Z" fill="#55B685"/>
<path d="M6.7084 7.53602C6.17495 8.04322 5.78005 8.68287 5.56704 9.38539C5.46694 9.71559 5.6531 10.0647 5.98391 10.1648C6.04434 10.1831 6.10537 10.1917 6.16518 10.1917C6.43374 10.1917 6.68154 10.0177 6.76333 9.74793C6.91348 9.25233 7.19302 8.80067 7.57021 8.44178C7.81985 8.20375 7.83022 7.80824 7.59219 7.55799C7.35415 7.30836 6.95803 7.29859 6.7084 7.53602Z" fill="#55B685"/>
<path d="M11.2531 6.36169H9.64661C9.54041 6.36169 9.43543 6.36536 9.33167 6.37329C8.98743 6.39954 8.72925 6.69983 8.7555 7.04346C8.78052 7.37183 9.05457 7.62146 9.37806 7.62146C9.39393 7.62146 9.4098 7.62085 9.42566 7.61963C9.49891 7.61414 9.57215 7.61169 9.64661 7.61169H11.2531C11.5985 7.61169 11.8781 7.33215 11.8781 6.98669C11.8781 6.64124 11.5985 6.36169 11.2531 6.36169Z" fill="#55B685"/>
<path d="M35.3845 28.5455H33.5095C33.1641 28.5455 32.8845 28.8251 32.8845 29.1705C32.8845 29.516 33.1641 29.7955 33.5095 29.7955H35.3845C35.73 29.7955 36.0095 29.516 36.0095 29.1705C36.0095 28.8251 35.73 28.5455 35.3845 28.5455Z" fill="#55B685"/>
<path d="M9.57705 13.8043C9.57217 13.8043 9.56728 13.8043 9.56301 13.8043C9.22426 13.8043 8.94594 14.0753 8.93801 14.4153C8.93069 14.7607 9.20412 15.0464 9.54897 15.0543L11.438 15.0549C11.7835 15.0549 12.063 14.7754 12.063 14.4299C12.063 14.0845 11.7835 13.8049 11.438 13.8049L9.57705 13.8043Z" fill="#55B685"/>
<path d="M46.3818 32.8552L47.0068 32.8076C47.0062 32.0898 46.8243 31.3806 46.4807 30.7562C46.3147 30.4529 45.9344 30.3436 45.6323 30.5096C45.3296 30.6757 45.2191 31.0559 45.3857 31.358C45.628 31.7993 45.7562 32.3004 45.7568 32.8552H46.3818V32.8552Z" fill="#55B685"/>
<path d="M30.7929 15.8142C31.1829 16.1603 31.4771 16.6022 31.6443 17.0917C31.7328 17.3511 31.9757 17.5146 32.2357 17.5146C32.3029 17.5146 32.3706 17.5037 32.4378 17.4811C32.7643 17.3694 32.9389 17.0142 32.8272 16.6876C32.5904 15.9943 32.1741 15.3686 31.623 14.8791C31.3648 14.6503 30.9699 14.6722 30.7404 14.9316C30.5115 15.1898 30.5347 15.5847 30.7929 15.8142Z" fill="#55B685"/>
<path d="M32.4524 18.7536C32.1204 18.6493 31.7725 18.8342 31.6687 19.1626C31.5137 19.6557 31.2305 20.1044 30.8496 20.4596C30.5969 20.6952 30.5829 21.0907 30.8185 21.3428C30.9418 21.4752 31.1084 21.5417 31.2757 21.5417C31.4282 21.5417 31.5814 21.4862 31.7017 21.3739C32.2406 20.871 32.6416 20.2362 32.8614 19.5373C32.9645 19.2077 32.7814 18.8574 32.4524 18.7536Z" fill="#55B685"/>
<path d="M20.1868 13.8049H18.3118C17.9663 13.8049 17.6868 14.0845 17.6868 14.4299C17.6868 14.7754 17.9663 15.0549 18.3118 15.0549H20.1868C20.5322 15.0549 20.8118 14.7754 20.8118 14.4299C20.8118 14.0845 20.5322 13.8049 20.1868 13.8049Z" fill="#55B685"/>
<path d="M20.2771 21.2701H19.4867C19.0594 21.2701 18.6383 21.333 18.2348 21.4569C17.9052 21.5582 17.7197 21.908 17.821 22.2382C17.904 22.5067 18.1512 22.6794 18.4186 22.6794C18.479 22.6794 18.5412 22.6709 18.6023 22.652C18.8867 22.5647 19.1839 22.5201 19.4867 22.5201H20.2771C20.6225 22.5201 20.9021 22.2406 20.9021 21.8951C20.9021 21.5497 20.6225 21.2701 20.2771 21.2701Z" fill="#55B685"/>
<path d="M24.3762 6.36169H22.5012C22.1558 6.36169 21.8762 6.64123 21.8762 6.98669C21.8762 7.33215 22.1558 7.61169 22.5012 7.61169H24.3762C24.7217 7.61169 25.0012 7.33215 25.0012 6.98669C25.0012 6.64123 24.7217 6.36169 24.3762 6.36169Z" fill="#55B685"/>
<path d="M20.0018 6.36169H18.1268C17.7814 6.36169 17.5018 6.64123 17.5018 6.98669C17.5018 7.33215 17.7814 7.61169 18.1268 7.61169H20.0018C20.3473 7.61169 20.6268 7.33215 20.6268 6.98669C20.6268 6.64123 20.3473 6.36169 20.0018 6.36169Z" fill="#55B685"/>
<path d="M19.7614 29.1705C19.7614 29.516 20.0409 29.7955 20.3864 29.7955H22.2614C22.6068 29.7955 22.8864 29.516 22.8864 29.1705C22.8864 28.8251 22.6068 28.5455 22.2614 28.5455H20.3864C20.0409 28.5455 19.7614 28.8251 19.7614 29.1705Z" fill="#55B685"/>
<path d="M17.0276 27.2742C16.8286 26.9922 16.4386 26.9251 16.1566 27.1259C15.8746 27.3255 15.8087 27.7155 16.0083 27.9968C16.4337 28.5974 17.0093 29.0796 17.6721 29.3915C17.7582 29.4318 17.8485 29.4507 17.9376 29.4507C18.1726 29.4507 18.3972 29.3182 18.504 29.0918C18.6505 28.7793 18.5162 28.407 18.2043 28.2599C17.7356 28.0402 17.3291 27.699 17.0276 27.2742Z" fill="#55B685"/>
<path d="M15.6274 6.36169H13.7524C13.407 6.36169 13.1274 6.64123 13.1274 6.98669C13.1274 7.33215 13.407 7.61169 13.7524 7.61169H15.6274C15.9729 7.61169 16.2524 7.33215 16.2524 6.98669C16.2524 6.64123 15.9729 6.36169 15.6274 6.36169Z" fill="#55B685"/>
<path d="M24.5612 13.8049H22.6862C22.3407 13.8049 22.0612 14.0845 22.0612 14.4299C22.0612 14.7754 22.3407 15.0549 22.6862 15.0549H24.5612C24.9066 15.0549 25.1862 14.7754 25.1862 14.4299C25.1862 14.0845 24.9066 13.8049 24.5612 13.8049Z" fill="#55B685"/>
<path d="M15.8124 13.8049H13.9374C13.5919 13.8049 13.3124 14.0845 13.3124 14.4299C13.3124 14.7754 13.5919 15.0549 13.9374 15.0549H15.8124C16.1578 15.0549 16.4374 14.7754 16.4374 14.4299C16.4374 14.0845 16.1578 13.8049 15.8124 13.8049Z" fill="#55B685"/>
<path d="M15.935 23.1745C15.5273 23.7866 15.285 24.4977 15.2344 25.2319C15.2106 25.5762 15.4706 25.8746 15.8154 25.8985C15.8301 25.8991 15.8441 25.8997 15.8588 25.8997C16.1841 25.8997 16.4587 25.6476 16.4819 25.3174C16.5173 24.8004 16.6882 24.2987 16.9751 23.8666C17.1667 23.5791 17.0886 23.1915 16.8011 23.0005C16.5143 22.8076 16.1261 22.8858 15.935 23.1745Z" fill="#55B685"/>
<path d="M28.5101 29.1705C28.5101 29.516 28.7897 29.7955 29.1351 29.7955H31.0101C31.3556 29.7955 31.6351 29.516 31.6351 29.1705C31.6351 28.8251 31.3556 28.5455 31.0101 28.5455H29.1351C28.7897 28.5455 28.5101 28.8251 28.5101 29.1705Z" fill="#55B685"/>
<path d="M28.7506 6.36169H26.8756C26.5302 6.36169 26.2506 6.64123 26.2506 6.98669C26.2506 7.33215 26.5302 7.61169 26.8756 7.61169H28.7506C29.0961 7.61169 29.3756 7.33215 29.3756 6.98669C29.3756 6.64123 29.0961 6.36169 28.7506 6.36169Z" fill="#55B685"/>
<path d="M28.9862 21.264C28.9227 21.2683 28.858 21.2701 28.7933 21.2701H27.1515C26.806 21.2701 26.5265 21.5497 26.5265 21.8951C26.5265 22.2406 26.806 22.5201 27.1515 22.5201H28.7933C28.8849 22.5201 28.9752 22.5171 29.0656 22.5116C29.4098 22.4896 29.6716 22.193 29.6497 21.8481C29.6277 21.5039 29.325 21.2439 28.9862 21.264Z" fill="#55B685"/>
<path d="M28.96 13.808C28.905 13.8055 28.8489 13.8049 28.7933 13.8049H27.0605C26.7151 13.8049 26.4355 14.0845 26.4355 14.4299C26.4355 14.7754 26.7151 15.0549 27.0605 15.0549L28.9111 15.0568C28.9197 15.0574 28.9276 15.0574 28.9362 15.0574C29.27 15.0574 29.5471 14.7931 29.5599 14.4568C29.5734 14.1119 29.3048 13.8214 28.96 13.808Z" fill="#55B685"/>
<path d="M24.1357 29.1705C24.1357 29.516 24.4153 29.7955 24.7607 29.7955H26.6357C26.9812 29.7955 27.2607 29.516 27.2607 29.1705C27.2607 28.8251 26.9812 28.5455 26.6357 28.5455H24.7607C24.4153 28.5455 24.1357 28.8251 24.1357 29.1705Z" fill="#55B685"/>
<path d="M24.6515 21.2701H22.7771C22.4316 21.2701 22.1521 21.5497 22.1521 21.8951C22.1521 22.2406 22.4316 22.5201 22.7771 22.5201H24.6515C24.9969 22.5201 25.2765 22.2406 25.2765 21.8951C25.2765 21.5497 24.9969 21.2701 24.6515 21.2701Z" fill="#55B685"/>
<path d="M19.8846 37.3743C20.2301 37.3743 20.5096 37.0947 20.5096 36.7493C20.5096 36.4038 20.2301 36.1243 19.8846 36.1243H18.9471C18.6017 36.1243 18.3221 36.4038 18.3221 36.7493C18.3221 37.0947 18.6017 37.3743 18.9471 37.3743H19.8846Z" fill="#55B685"/>
<path d="M42.6868 0C38.6542 0 35.3735 3.28064 35.3735 7.31323C35.3735 12.7826 41.9543 19.7498 42.2345 20.0433C42.3523 20.1672 42.5159 20.2374 42.6868 20.2374C42.6886 20.2374 42.691 20.2374 42.6929 20.2374C42.8662 20.2356 43.0304 20.1623 43.1476 20.0348C43.4271 19.7296 50 12.4982 50 7.31323C50 3.28064 46.7194 0 42.6868 0ZM42.6788 18.6743C41.1926 16.9958 36.6235 11.4954 36.6235 7.31323C36.6235 3.96973 39.3433 1.25 42.6868 1.25C46.0303 1.25 48.75 3.96973 48.75 7.31323C48.75 11.2756 44.1577 16.9495 42.6788 18.6743Z" fill="#55B685"/>
<path d="M42.6868 3.98865C41.0339 3.98865 39.6887 5.33386 39.6887 6.98669C39.6887 8.63953 41.0339 9.98474 42.6868 9.98474C44.3396 9.98474 45.6848 8.63953 45.6848 6.98669C45.6848 5.33386 44.3396 3.98865 42.6868 3.98865ZM42.6868 8.73474C41.723 8.73474 40.9387 7.95044 40.9387 6.98669C40.9387 6.02295 41.723 5.23865 42.6868 5.23865C43.6505 5.23865 44.4348 6.02295 44.4348 6.98669C44.4348 7.95044 43.6505 8.73474 42.6868 8.73474Z" fill="#55B685"/>
<path d="M0 37.0758C0 42.5452 6.58081 49.5123 6.86096 49.8059C6.97876 49.9298 7.14233 50 7.31323 50C7.31506 50 7.31751 50 7.31934 50C7.49268 49.9982 7.65686 49.9249 7.77405 49.7974C8.05359 49.4922 14.6265 42.2607 14.6265 37.0758C14.6265 33.0432 11.3458 29.7626 7.31323 29.7626C3.28064 29.7626 0 33.0432 0 37.0758ZM7.31323 31.0126C10.6567 31.0126 13.3765 33.7323 13.3765 37.0758C13.3765 41.0382 8.78418 46.712 7.3053 48.4369C5.81909 46.7584 1.25 41.2579 1.25 37.0758C1.25 33.7323 3.96973 31.0126 7.31323 31.0126Z" fill="#55B685"/>
<path d="M7.31323 39.7473C8.96606 39.7473 10.3113 38.4021 10.3113 36.7493C10.3113 35.0964 8.96606 33.7512 7.31323 33.7512C5.6604 33.7512 4.31519 35.0964 4.31519 36.7493C4.31519 38.4021 5.6604 39.7473 7.31323 39.7473ZM7.31323 35.0012C8.27698 35.0012 9.06128 35.7855 9.06128 36.7493C9.06128 37.713 8.27698 38.4973 7.31323 38.4973C6.34949 38.4973 5.56519 37.713 5.56519 36.7493C5.56519 35.7855 6.34949 35.0012 7.31323 35.0012Z" fill="#55B685"/>
</g>
<defs>
<clipPath id="clip0_4557_157">
<rect width="50" height="50" fill="white"/>
</clipPath>
</defs>
</svg>
